<?xml version="1.0" encoding="UTF-8" standalone="no"?>
<!-- Generator: Adobe Illustrator 21.0.2, SVG Export Plug-In . SVG Version: 6.00 Build 0)  -->

<svg
   xmlns:dc="http://purl.org/dc/elements/1.1/"
   xmlns:cc="http://creativecommons.org/ns#"
   xmlns:rdf="http://www.w3.org/1999/02/22-rdf-syntax-ns#"
   xmlns:svg="http://www.w3.org/2000/svg"
   xmlns="http://www.w3.org/2000/svg"
   xmlns:sodipodi="http://sodipodi.sourceforge.net/DTD/sodipodi-0.dtd"
   xmlns:inkscape="http://www.inkscape.org/namespaces/inkscape"
   version="1.1"
   x="0px"
   y="0px"
   width="355.62451"
   height="353.89844"
   viewBox="0 0 355.62451 353.89844"
   enable-background="new 0 0 1400 980"
   xml:space="preserve"
   id="svg2"
   inkscape:version="0.91 r13725"
   sodipodi:docname="logo.svg"><metadata
     id="metadata743"><rdf:RDF><cc:Work
         rdf:about=""><dc:format>image/svg+xml</dc:format><dc:type
           rdf:resource="http://purl.org/dc/dcmitype/StillImage" /><dc:title /></cc:Work></rdf:RDF></metadata><defs
     id="defs741" /><sodipodi:namedview
     pagecolor="#ffffff"
     bordercolor="#666666"
     borderopacity="1"
     objecttolerance="10"
     gridtolerance="10"
     guidetolerance="10"
     inkscape:pageopacity="0"
     inkscape:pageshadow="2"
     inkscape:window-width="1920"
     inkscape:window-height="1027"
     id="namedview739"
     showgrid="false"
     inkscape:zoom="1.3131983"
     inkscape:cx="97.332477"
     inkscape:cy="121.26039"
     inkscape:window-x="0"
     inkscape:window-y="0"
     inkscape:window-maximized="1"
     inkscape:current-layer="svg2"
     fit-margin-top="0"
     fit-margin-left="0"
     fit-margin-right="0"
     fit-margin-bottom="0" /><path
     style="fill:#ffffff;fill-opacity:1;stroke:none"
     d="m 41.20117,266.19922 c -0.1,5.5 -2.90078,10.89961 -7.80078,14.09961 5.4,7.5 11.29922,14.59961 17.69922,21.09961 6.2,-6.7 16.60156,-7.4 23.60156,-1.5 7.1,5.9 8.19961,16.30156 2.59961,23.60156 7.6,5.2 15.60039,9.79883 23.90039,13.79883 3.5,-8.4 13.09883,-12.7 21.79883,-9.5 8.7,3.2 13.2,12.60078 10.5,21.30078 8.8,2.3 17.90117,3.89883 27.20117,4.79883 0.4,-9.1 7.99922,-16.39844 17.19922,-16.39844 9.2,0 16.69922,7.29844 17.19922,16.39844 9.3,-0.9 18.40117,-2.49883 27.20117,-4.79883 -2.7,-8.7 1.89961,-18.10078 10.59961,-21.30078 8.7,-3.2 18.19922,1.1 21.69922,9.5 8.3,-4 16.30039,-8.59883 23.90039,-13.79883 -5.5,-7.3 -4.39883,-17.60156 2.70117,-23.60156 7.1,-5.9 17.49922,-5.2 23.69922,1.5 6.4,-6.6 12.39922,-13.59961 17.69922,-21.09961 -4.9,-3.3 -7.69844,-8.59961 -7.89844,-14.09961 l -273.5,0 z m 82.11133,11.0332 33.12695,0 0,3.89453 -13.90234,0 0,30.31836 -5.32422,0 0,-30.31836 -13.90039,0 0,-3.89453 z m 40.3125,7.92774 c 4.19659,0 7.49311,1.1929 9.88867,3.57617 2.39556,2.38327 3.59375,5.68188 3.59375,9.89844 0,4.20128 -1.19819,7.50184 -3.59375,9.90039 -2.39556,2.38327 -5.69208,3.57422 -9.88867,3.57422 -4.21408,0 -7.51851,-1.19095 -9.91406,-3.57422 -2.37807,-2.39855 -3.56641,-5.69911 -3.56641,-9.90039 0,-4.21656 1.18834,-7.51517 3.56641,-9.89844 2.39555,-2.38327 5.69998,-3.57617 9.91406,-3.57617 z m 70.10937,0 c 0.33223,0 0.69939,0.0225 1.10157,0.0684 0.40217,0.0306 0.84828,0.0857 1.33789,0.16211 l 0.0273,4.33007 c -0.54206,-0.27499 -1.13623,-0.47348 -1.7832,-0.5957 -0.62949,-0.1375 -1.33024,-0.20703 -2.09961,-0.20703 -2.72779,0 -4.82611,0.7796 -6.29492,2.33789 -1.45133,1.54302 -2.17578,3.76722 -2.17578,6.66992 l 0,13.51953 -4.85352,0 0,-25.66601 4.85352,0 0,3.98828 c 1.01417,-1.55829 2.3328,-2.71235 3.95898,-3.46094 1.62618,-0.76387 3.60212,-1.14648 5.92773,-1.14648 z m -49.15234,0.61914 4.82617,0 0,15.37695 c 0,2.42911 0.54284,4.25437 1.62696,5.47656 1.08412,1.20692 2.71066,1.81055 4.8789,1.81055 2.60539,0 4.66028,-0.72638 6.16406,-2.17773 1.52127,-1.45136 2.28125,-3.43006 2.28125,-5.93555 l 0,-14.55078 4.82618,0 0,25.66601 -4.82618,0 0,-3.9414 c -1.17155,1.55829 -2.53556,2.71855 -4.09179,3.48242 -1.53875,0.74859 -3.33112,1.12305 -5.37696,1.12305 -3.37476,0 -5.93696,-0.91672 -7.68554,-2.75 -1.74858,-1.83329 -2.62305,-4.5139 -2.62305,-8.04297 l 0,-15.53711 z m -20.95703,2.95703 c -2.5879,0 -4.63294,0.88603 -6.13672,2.6582 -1.50378,1.7569 -2.25586,4.16948 -2.25586,7.24024 0,3.07075 0.74418,5.49345 2.23047,7.26562 1.50378,1.7569 3.55672,2.63477 6.16211,2.63477 2.57041,0 4.60755,-0.88603 6.11133,-2.65821 1.50378,-1.77217 2.25586,-4.18671 2.25586,-7.24218 0,-3.0402 -0.75208,-5.44658 -2.25586,-7.21875 -1.50378,-1.78746 -3.54092,-2.67969 -6.11133,-2.67969 z"
     id="path260"
     inkscape:export-xdpi="300"
     inkscape:export-ydpi="300"
     inkscape:connector-curvature="0" /><path
     style="fill:#ffffff;fill-opacity:1;stroke:none"
     d="M 160.70117,0 C 151.40117,0.9 142.3,2.498828 133.5,4.798828 c 2.7,8.700001 -1.9,18.100781 -10.5,21.300781 -8.7,3.2 -18.19922,-1.1 -21.69922,-9.5 -8.3,4 -16.30039,8.59883 -23.90039,13.79883 5.5,7.3 4.40078,17.6 -2.69922,23.5 -7.1,5.9 -17.50117,5.2 -23.70117,-1.5 -6.4,6.6 -12.39922,13.70156 -17.69922,21.10156 7.6,4.9 10.2,15.1 5.5,23 C 34.20078,104.5 24.2,107.39922 16,103.19922 c -3.8,8.3 -7,17.00039 -9.5,25.90039 8.9,2 14.80117,10.69883 13.20117,19.79883 C 18.10117,157.99844 9.69961,164.1 0.59961,163 0.19961,167.6 0,172.09883 0,176.79883 c 0,4.6 0.19961,9.20078 0.59961,13.80078 0.7,-0.1 1.30039,-0.0996 1.90039,-0.0996 2,-0.3 4.10117,-0.60156 6.20117,-0.60156 l 120.92578,0 c -8.83752,-3.31653 -15.14952,-11.7834 -15.22656,-21.79884 -0.2,-13 10.30039,-23.60117 23.40039,-23.70117 4.9,-0.1 9.39922,1.40039 13.19922,3.90039 3.4,-3 7.20117,-5.59883 11.20117,-7.29883 0.3,-0.1 0.7,-0.30039 1,-0.40039 l -2.30078,-9.90039 c -6.4,1.7 -4.80078,-5.19922 -4.80078,-5.19922 1.8,-1.6 10.50078,-0.80117 13.80078,-0.70117 3.3,0.1 7.19922,2.90039 4.19922,3.40039 -2.9,0.4 -3.29883,-1.20078 -10.79883,1.69922 l 2.29883,9.90039 c 12.1,-4 29.30117,-5.5 36.20117,-6 -0.8,-2.1 -1.50039,-3.80039 -1.90039,-4.90039 -2,-5.3 1.4,-9.1 4.5,-11 l -1,-0.59961 c -0.7,-0.5 -0.9,-1.39961 -0.5,-2.09961 0.4,-0.6 1.3,-0.80039 2,-0.40039 l 5.40039,3.40039 c 0.7,0.5 0.9,1.39961 0.5,2.09961 -0.5,0.7 -1.39961,0.9 -2.09961,0.5 l -1.5,-1 c -1.3,0.6 -6.40156,3.19961 -4.60156,8.09961 1,2.7 3.70156,9.60078 6.60156,16.80078 2.3,-0.7 4.59961,-1.09961 7.09961,-1.09961 13,-0.1 23.69883,10.40039 23.79883,23.40039 0.0833,10.83355 -7.19674,20.06299 -17.14844,22.89844 l 123.84961,0 c 2.1,0 4.19922,0.20156 6.19922,0.60156 0.6,0 1.30039,-3.9e-4 1.90039,0.0996 0.4,-4.6 0.59961,-9.20078 0.59961,-13.80078 0.3,-4.5 10e-4,-9.09922 -0.29883,-13.69922 -9,1.1 -17.50156,-4.99961 -19.10156,-14.09961 -1.6,-9.1 4.20156,-17.70078 13.10156,-19.80078 -2.5,-8.9 -5.7,-17.60039 -9.5,-25.90039 -8.1,4.2 -18.20078,1.30078 -22.80078,-6.699221 -4.6,-8 -2.10039,-18.09961 5.59961,-23.09961 -5.4,-7.5 -11.29922,-14.60156 -17.69922,-21.10156 -6.2,6.7 -16.60117,7.4 -23.70117,1.5 -7.1,-5.9 -8.19922,-16.3 -2.69922,-23.5 -7.6,-5.2 -15.50039,-9.79883 -23.90039,-13.79883 -3.5,8.4 -13.09922,12.7 -21.69922,9.5 -8.7,-3.1 -13.2,-12.50078 -10.5,-21.300781 -8.8,-2.3 -17.90117,-3.898828 -27.20117,-4.7988279999999 C 194.69961,9.09999 187.10039,16.398429 177.90039,16.398429 c -9.2,0 -16.69922,-7.298439 -17.19922,-16.3984389999999 z M 170.5,51.599609 c 0,0 20.9,22.99922 25.5,25.19922 1.2,0.6 10.20117,-9.29883 10.20117,-9.29883 0,0 42.09844,44.599611 47.39844,49.099611 C 254.89961,117.69961 264.7,111 266,110 c 0.6,0.5 16.79961,18.69922 49.59961,49.19922 l -48.5,-36.90039 -13.79883,12.5 -16.80078,-25.59961 -8.69922,9.59961 -21,-39.599611 -13.09961,16.90039 L 171,61.699219 133.40039,103.69922 123.80078,87.298829 100.20117,112.89844 73.5,120 123.09961,79.499999 c 0,0 8.7,7.09883 9.5,7.29883 2.5,0.6 37.90039,-35.19922 37.90039,-35.19922 z M 200,138.5 c -7.7,0.6 -23.1,2.19844 -33.5,5.89844 l 3.70117,16.80078 c 0.4,-0.1 0.69961,-0.0996 1.09961,-0.0996 2.1,-0.1 3.90039,0.70039 5.40039,1.90039 L 200,138.50001 Z m 4,1.09961 -25,26.29883 c 0.5,1 0.80078,2.2 0.80078,3.5 0,3.1 -1.59961,5.70117 -4.09961,7.20117 l 2,4.90039 1.59961,-0.10156 c 0.6,0 1.19922,0.60039 1.19922,1.40039 0,0.9 -0.4,1.59961 -1,1.59961 l -4.59961,0.30078 c -0.6,0 -1.09922,-0.60039 -1.19922,-1.40039 0,-0.9 0.4,-1.59961 1,-1.59961 l 1.19922,-0.0996 -1.80078,-4.30078 c -0.8,0.2 -1.6,0.40039 -2.5,0.40039 -1.5,0 -2.8,-0.4 -4,-1 -2.4,-0.5 -4.79883,-1.09961 -7.29883,-1.59961 -2.18396,6.84307 -7.44901,12.29338 -14.16016,14.79883 l 63.9336,0 c -9.82094,-2.79319 -17.0915,-11.79668 -17.17383,-22.5 -0.1,-9.5 5.49961,-17.79961 13.59961,-21.59961 -0.9,-2.2 -1.7,-4.19922 -2.5,-6.19922 z m -39.90039,5.79883 c -3.3,1.4 -6.49844,3.60039 -9.39844,6.40039 2.8,2.8 4.79844,6.40039 5.89844,10.40039 1.7,-0.2 3.4,-0.30039 5,-0.40039 l -1.39844,-2.29883 -1.40039,0.29883 c -0.5,0.1 -1.00117,-0.39961 -1.20117,-1.09961 -0.2,-0.7 0.10156,-1.4 0.60156,-1.5 l 4,-1 0.29883,0 -2.40039,-10.80078 z M 216.30078,146.5 c -2,0 -4.00039,0.29844 -5.90039,0.89844 2.3,5.8 4.59922,11.60039 6.19922,15.40039 2.3,0.1 4.10156,1.90117 4.10156,4.20117 0,2.4 -1.90117,4.29883 -4.20117,4.29883 -2.4,0 -4.29883,-1.89922 -4.29883,-4.19922 -0.1,-1.3 0.5,-2.50078 1.5,-3.30078 -1.6,-3.8 -3.90117,-9.49883 -6.20117,-15.29883 -7,3.4 -11.79961,10.49922 -11.59961,18.69922 0.1,11.4 9.29922,20.50039 20.69922,20.40039 11.4,-0.1 20.50039,-9.30117 20.40039,-20.70117 -0.1,-11.4 -9.29922,-20.49844 -20.69922,-20.39844 z m -78.59961,0.89844 c -11.3,0.1 -20.40078,9.40117 -20.30078,20.70117 0.1,11.3 9.29922,20.39922 20.69922,20.19922 8.9,-0.1 16.50117,-5.90039 19.20117,-13.90039 -6.9,-1.5 -13.50117,-2.89961 -16.70117,-3.59961 -0.6,0.4 -1.29961,0.59961 -2.09961,0.59961 -2.4,0 -4.29883,-1.89922 -4.29883,-4.19922 0,-2.2 1.69844,-3.99922 3.89844,-4.19922 2.4,-3.5 6,-8.20156 10.5,-12.60156 -3.2,-1.9 -6.89844,-3 -10.89844,-3 z m 14.69922,6.20117 c -3.2,3.2 -5.99922,6.69961 -8.19922,9.59961 3.6,-0.3 8.39883,-0.7 13.29883,-1 -1,-3.3 -2.79961,-6.19961 -5.09961,-8.59961 z M 167.09961,158.5 c -0.1,0 -0.19883,0.0996 -0.29883,0.0996 l -1,0.19922 1.59961,2.59961 0.40039,0 -0.70117,-2.89844 z m -0.79883,4.09961 c -1.8,0.1 -3.60039,0.30039 -5.40039,0.40039 0.3,1.5 0.5,3.09922 0.5,4.69922 l 0,0.5 1.80078,0.19922 c 0.3,-2.3 1.49922,-4.29961 3.19922,-5.59961 l -0.0996,-0.19922 z m -8.40039,0.59961 c -5.5,0.4 -10.80039,0.79961 -14.40039,1.09961 -0.4,0.5 -0.7,1.00039 -1,1.40039 l 15.90039,2.09961 c 0,-1.6 -0.2,-3.09961 -0.5,-4.59961 z m 13.5,0.19922 c -0.9,0 -1.7,0.2 -2.5,0.5 l 1.69922,2.80078 c 0.3,-0.1 0.6,-0.19922 1,-0.19922 0.6,0 1.1,0.19844 1.5,0.39844 l 2.10156,-2.19922 c -1,-0.8 -2.40078,-1.30078 -3.80078,-1.30078 z m -3.80078,1.30078 c -1.2,1 -1.99922,2.4 -2.19922,4 l 3.30078,0.40039 c 0.1,-0.6 0.29922,-1.1 0.69922,-1.5 l -1.80078,-2.90039 z m 9.60156,3 -2.70117,2.90039 c -0.2,0.5 -0.39883,0.89922 -0.79883,1.19922 l 1.09961,2.70117 c 1.6,-1.1 2.69922,-3.00156 2.69922,-5.10156 0,-0.6 -0.0988,-1.19922 -0.29883,-1.69922 z m -34.60156,0.5 c -0.2,0.6 -0.49844,1.19922 -0.89844,1.69922 3.4,0.8 9.49844,2.1 15.89844,3.5 0.3,-1 0.50156,-1.99961 0.60156,-3.09961 l -15.60156,-2.09961 z m 18.70117,2.5 c -0.2,1.2 -0.40117,2.30039 -0.70117,3.40039 1.6,0.4 3.30039,0.69961 4.90039,1.09961 -1.1,-1.1 -1.89922,-2.59922 -2.19922,-4.19922 l -2,-0.30078 z m 4.40039,0.59961 c 0.8,2.5 3.09883,4.20117 5.79883,4.20117 0.6,0 1.09961,-0.10117 1.59961,-0.20117 L 172,172.5 l -0.29883,0 c -0.7,0 -1.40039,-0.30117 -1.90039,-0.70117 l -4.09961,-0.5 z"
     id="path262"
     inkscape:export-xdpi="300"
     inkscape:export-ydpi="300"
     inkscape:connector-curvature="0" /><text
     style="font-size:14.69693851px;fill:#ffffff;fill-opacity:1;stroke:none;"
     transform="scale(0.81649657,1.2247449)"
     id="text268"
     x="13.423522"
     y="206.46996"><tspan
       x="13.423522"
       y="206.46996"
       font-size="45.0359px"
       id="tspan270"
       style="font-size:55.15748596px;font-family:Homestead-Regular;fill:#ffffff;fill-opacity:1;stroke:none;">BOULDER BIKE</tspan></text>
<text
     style="font-size:52.14680099px;font-family:Wisdom-Script;fill:#f4f6f7"
     id="text278"
     font-size="52.1468px"
     x="234.92578"
     y="311.44531" />
</svg>